<?xml version="1.0" encoding="UTF-8"?>
<svg xmlns="http://www.w3.org/2000/svg" viewBox="0 0 64 64" role="img" aria-label="Lion">
  <defs>
    <linearGradient id="m" x1="0" y1="0" x2="0" y2="1">
      <stop offset="0" stop-color="#c01b15"/>
      <stop offset="1" stop-color="#d3716a"/>
    </linearGradient>
  </defs>
  <!-- Mane -->
  <path fill="url(#m)" d="M32 4c-5.2 0-10 2-13.7 5.3l-3.1-2.1-3.3 5 3.4 2.3c-1.5 2.8-2.3 6-2.3 9.5 0 2.1.3 4.1.9 6l-3.6 2.5 3.3 5 3.4-2.3c3.8 6.6 10.9 11 19 11s15.2-4.4 19-11l3.4 2.3 3.3-5-3.6-2.5c.6-1.9.9-3.9.9-6 0-3.5-.8-6.7-2.3-9.5l3.4-2.3-3.3-5-3.1 2.1C42 6 37.2 4 32 4z"/>
  <!-- Face -->
  <path fill="#ffffff" opacity=".92" d="M32 18c-8.3 0-15 6.7-15 15.1 0 9.8 7.4 17.9 15 17.9s15-8.1 15-17.9C47 24.7 40.3 18 32 18z"/>
  <!-- Eyes -->
  <path fill="#2b2b2b" d="M26 32.2c0 1.3-1 2.3-2.3 2.3s-2.3-1-2.3-2.3 1-2.3 2.3-2.3 2.3 1.1 2.3 2.3zm16 0c0 1.3-1 2.3-2.3 2.3s-2.3-1-2.3-2.3 1-2.3 2.3-2.3 2.3 1.1 2.3 2.3z"/>
  <!-- Nose -->
  <path fill="#2b2b2b" d="M32 36.3c-2.5 0-4.6 1.9-4.6 4.3 0 2.1 2.2 3.4 4.6 3.4s4.6-1.3 4.6-3.4c0-2.4-2.1-4.3-4.6-4.3z"/>
  <!-- Mouth -->
  <path fill="none" stroke="#2b2b2b" stroke-width="2.2" stroke-linecap="round" d="M27.7 45.2c1.2 1.5 2.7 2.3 4.3 2.3s3.1-.8 4.3-2.3"/>
</svg>
